<svg width="169" height="37" viewBox="0 0 169 37" fill="none" xmlns="http://www.w3.org/2000/svg">
<path fill-rule="evenodd" clip-rule="evenodd" d="M58.4529 4.63204C57.9416 4.20606 57.2883 3.92186 56.6064 3.92186C56.0953 3.92186 55.4134 4.22009 55.4134 4.81672C55.4134 5.44157 56.1662 5.68303 56.6492 5.83916L57.3593 6.05223C58.8507 6.49256 60.0011 7.24516 60.0011 8.97794C60.0011 10.043 59.7455 11.1365 58.8933 11.8609C58.0553 12.5709 56.9332 12.8692 55.8538 12.8692C54.5044 12.8692 53.1835 12.4148 52.0898 11.6478L53.283 9.40392C53.9789 10.0146 54.8027 10.5117 55.7544 10.5117C56.4077 10.5117 57.1037 10.1851 57.1037 9.43231C57.1037 8.65116 56.0101 8.38132 55.4134 8.21083C53.6665 7.71388 52.516 7.25935 52.516 5.18592C52.516 3.01297 54.0641 1.59277 56.2088 1.59277C57.2883 1.59277 58.6091 1.93375 59.5608 2.47328L58.4529 4.63204Z" fill="#DD1D21"/>
<path fill-rule="evenodd" clip-rule="evenodd" d="M63.8496 0.797363V6.22249H63.878C64.4745 5.42715 65.1988 5.05795 66.2073 5.05795C68.0538 5.05795 68.9485 6.27942 68.9485 8.1256V12.5851H66.3636V8.84981C66.3636 7.99769 66.2357 7.11719 65.1988 7.11719C64.1762 7.11719 63.8496 7.99769 63.8496 8.84981V12.5851H61.2646V0.797363H63.8496Z" fill="#DD1D21"/>
<path fill-rule="evenodd" clip-rule="evenodd" d="M75.7368 7.88439C75.6089 7.18857 74.9698 6.73404 74.2739 6.73404C73.5211 6.73404 72.8962 7.13163 72.7399 7.88439H75.7368ZM78.137 9.37546H72.6972C72.6972 10.4265 73.2512 10.9945 74.3164 10.9945C74.8704 10.9945 75.268 10.8098 75.5521 10.3269H78.0376C77.8387 11.1792 77.3276 11.8041 76.6599 12.2158C75.9924 12.6278 75.1686 12.8265 74.3306 12.8265C71.916 12.8265 70.1123 11.4631 70.1123 8.94948C70.1123 6.52088 71.7741 5.05811 74.1459 5.05811C76.6741 5.05811 78.137 6.62024 78.137 9.10562V9.37546Z" fill="#DD1D21"/>
<path fill-rule="evenodd" clip-rule="evenodd" d="M79.3145 12.5851H81.8996V0.797363H79.3145V12.5851Z" fill="#DD1D21"/>
<path fill-rule="evenodd" clip-rule="evenodd" d="M83.6035 12.5851H86.1886V0.797363H83.6035V12.5851Z" fill="#DD1D21"/>
<path fill-rule="evenodd" clip-rule="evenodd" d="M56.1289 23.0009H56.5205C57.8394 23.0009 59.3232 22.7535 59.3232 21.064C59.3232 19.3742 57.8394 19.1269 56.5205 19.1269H56.1289V23.0009ZM65.0109 31.5729H59.9825L56.1701 25.5973H56.1289V31.5729H52.0898V16.0361H58.1279C61.1985 16.0361 63.5271 17.4991 63.5271 20.8166C63.5271 22.9596 62.3319 24.8142 60.1267 25.2056L65.0109 31.5729Z" fill="#0097A9"/>
<path fill-rule="evenodd" clip-rule="evenodd" d="M73.3981 24.7524C73.2126 23.7425 72.2853 23.0832 71.2753 23.0832C70.1833 23.0832 69.2765 23.6602 69.0499 24.7524H73.3981ZM76.8808 26.9159H68.988C68.988 28.4405 69.7917 29.2649 71.3374 29.2649C72.1411 29.2649 72.718 28.9971 73.1301 28.2963H76.7365C76.4481 29.5328 75.7061 30.4395 74.7375 31.0371C73.769 31.6346 72.5738 31.9231 71.3578 31.9231C67.8546 31.9231 65.2373 29.9449 65.2373 26.2977C65.2373 22.7741 67.6486 20.6519 71.09 20.6519C74.7582 20.6519 76.8808 22.9183 76.8808 26.5243V26.9159Z" fill="#0097A9"/>
<path fill-rule="evenodd" clip-rule="evenodd" d="M86.2154 24.4432C85.6591 24.031 84.9995 23.7015 84.2783 23.7015C82.8357 23.7015 81.7023 24.814 81.7023 26.2771C81.7023 27.8019 82.7945 28.8734 84.34 28.8734C84.9995 28.8734 85.7208 28.6056 86.2154 28.1522V31.3256C85.3911 31.7377 84.4844 31.9231 83.5775 31.9231C80.4451 31.9231 77.8281 29.5945 77.8281 26.4006C77.8281 23.0009 80.4246 20.6519 83.7426 20.6519C84.608 20.6519 85.4736 20.8577 86.2154 21.2699V24.4432Z" fill="#0097A9"/>
<path fill-rule="evenodd" clip-rule="evenodd" d="M92.2947 14.47V22.3414H92.3358C93.2014 21.1875 94.2523 20.6518 95.7155 20.6518C98.3946 20.6518 99.6929 22.4237 99.6929 25.1025V31.5727H95.9422V26.1535C95.9422 24.917 95.7568 23.6396 94.2523 23.6396C92.7685 23.6396 92.2947 24.917 92.2947 26.1535V31.5727H88.5439V14.47H92.2947Z" fill="#0097A9"/>
<path fill-rule="evenodd" clip-rule="evenodd" d="M105.278 26.2976C105.278 27.637 106.164 28.6672 107.689 28.6672C109.214 28.6672 110.1 27.637 110.1 26.2976C110.1 24.9994 109.214 23.9073 107.689 23.9073C106.164 23.9073 105.278 24.9994 105.278 26.2976ZM113.727 31.5727H109.976V30.3982H109.935C109.276 31.4492 107.977 31.9231 106.741 31.9231C103.608 31.9231 101.403 29.306 101.403 26.2771C101.403 23.2481 103.567 20.6519 106.7 20.6519C107.916 20.6519 109.193 21.1049 109.976 22.0322V21.0019H113.727V31.5727Z" fill="#0097A9"/>
<path fill-rule="evenodd" clip-rule="evenodd" d="M119.97 22.733H120.012C120.733 21.4348 121.969 20.8579 123.433 20.8579H124.154V24.464C123.639 24.1753 123.144 24.1136 122.567 24.1136C120.486 24.1136 119.97 25.4941 119.97 27.3074V31.5729H116.22V21.0021H119.97V22.733Z" fill="#0097A9"/>
<path fill-rule="evenodd" clip-rule="evenodd" d="M129.079 26.2154C129.079 27.5545 129.966 28.585 131.491 28.585C133.015 28.585 133.902 27.5545 133.902 26.2154C133.902 24.917 133.015 23.825 131.491 23.825C129.966 23.825 129.079 24.917 129.079 26.2154ZM137.529 30.5425C137.529 35.0345 135.303 36.848 131.408 36.848C128.976 36.848 125.72 35.5911 125.391 32.8092H129.595C129.698 33.18 129.966 33.448 130.295 33.6129C130.625 33.7776 131.017 33.8601 131.367 33.8601C133.386 33.8601 133.778 32.5413 133.778 30.831V30.3364C132.809 31.305 131.82 31.779 130.419 31.779C127.328 31.779 125.205 29.4299 125.205 26.3802C125.205 23.2894 127.39 20.6519 130.625 20.6519C131.862 20.6519 132.995 21.064 133.737 22.115H133.778V21.0021H137.529V30.5425Z" fill="#0097A9"/>
<path fill-rule="evenodd" clip-rule="evenodd" d="M147.254 24.7524C147.069 23.7425 146.142 23.0832 145.132 23.0832C144.04 23.0832 143.133 23.6602 142.906 24.7524H147.254ZM150.737 26.9159H142.844C142.844 28.4405 143.648 29.2649 145.194 29.2649C145.997 29.2649 146.574 28.9971 146.987 28.2963H150.593C150.304 29.5328 149.562 30.4395 148.594 31.0371C147.625 31.6346 146.43 31.9231 145.214 31.9231C141.711 31.9231 139.094 29.9449 139.094 26.2977C139.094 22.7741 141.505 20.6519 144.946 20.6519C148.615 20.6519 150.737 22.9183 150.737 26.5243V26.9159Z" fill="#0097A9"/>
<path fill-rule="evenodd" clip-rule="evenodd" d="M154.689 4.79371L158.285 8.38893L153.71 12.9632C152.112 10.4113 152.439 6.99027 154.689 4.79371ZM167.68 5.80411C167.296 5.40541 166.646 5.41498 166.254 5.80619L161.676 10.384C161.291 10.7695 161.291 11.3945 161.676 11.7799L163.959 14.0621C161.527 16.5531 157.595 16.6867 155.003 14.4631L160.767 8.69921C160.938 8.52792 160.938 8.2501 160.767 8.07882L155.104 2.41606C154.949 2.26168 154.705 2.2443 154.53 2.37555L154.149 2.66167C153.827 2.90424 153.519 3.17105 153.236 3.45446C151.625 5.06523 150.738 7.20693 150.738 9.48514C150.738 11.2654 151.28 12.9625 152.285 14.3881L150.334 16.3387C149.943 16.7301 149.934 17.38 150.332 17.7639C150.719 18.1361 151.334 18.1317 151.715 17.7506L153.603 15.8624C155.165 17.2534 157.158 18.0136 159.267 18.0136C161.545 18.0136 163.687 17.1264 165.298 15.5157C165.582 15.2323 165.848 14.9248 166.091 14.6021L166.377 14.2216C166.508 14.047 166.491 13.8022 166.336 13.6478L163.77 11.0819L167.666 7.18651C168.047 6.80551 168.052 6.19054 167.68 5.80411Z" fill="#0097A9"/>
<path fill-rule="evenodd" clip-rule="evenodd" d="M160.622 4.82259L162.962 2.48282C163.347 2.09719 163.347 1.47218 162.962 1.08671C162.576 0.70124 161.951 0.70124 161.566 1.08671L159.226 3.42648C158.84 3.81211 158.84 4.43712 159.226 4.82259C159.611 5.20806 160.236 5.20806 160.622 4.82259Z" fill="#0097A9"/>
<path d="M17.8961 0C8.01729 0 0 8.01684 0 17.8951C0 19.0976 0.121013 20.2976 0.361096 21.4738L0.423009 21.7772L5.65751 25.5837L6.50567 32.3707H15.6278L15.9187 32.5823C16.4922 33.0002 17.1853 33.2255 17.8961 33.2255L17.9722 33.2247C18.6566 33.2092 19.3198 32.9857 19.8746 32.5823L20.1653 32.3707H29.2874L30.136 25.5836L35.3697 21.7772L35.4317 21.474C35.6719 20.2978 35.793 19.0979 35.793 17.8951C35.793 8.01682 27.7753 0 17.8961 0Z" fill="white"/>
<path fill-rule="evenodd" clip-rule="evenodd" d="M15.8874 31.5732H7.21007L6.40637 25.1421L1.14284 21.3143C0.913327 20.1898 0.797852 19.0433 0.797852 17.895C0.797852 8.45716 8.45812 0.797363 17.8965 0.797363C27.3353 0.797363 34.9958 8.45716 34.9958 17.895C34.9958 19.0433 34.8804 20.1898 34.6507 21.3143L29.388 25.1421L28.5838 31.5732H19.9066L19.4059 31.9373C18.9668 32.2566 18.4391 32.4281 17.8965 32.4281C17.355 32.4281 16.8262 32.2566 16.3881 31.9373L15.8874 31.5732Z" fill="#FFCF00"/>
<path fill-rule="evenodd" clip-rule="evenodd" d="M16.1587 28.581H9.85194L9.21459 23.4849L4.01949 19.7066C3.86717 19.1146 3.79029 18.5067 3.79029 17.895C3.79029 16.8737 4.00497 15.8648 4.42126 14.9325L13.6192 24.2319L4.67725 13.1943C5.0291 11.7626 5.80776 10.4719 6.91051 9.49317L14.9261 23.327L7.8241 8.18174C8.74248 6.95899 10.0244 6.05791 11.4852 5.60641L16.3862 22.7773L12.8052 4.89847C13.8945 4.28398 15.1246 3.96119 16.3748 3.96119C16.6398 3.96119 16.904 3.97538 17.1672 4.00409L17.8966 22.5971L18.6274 4.00409C18.8898 3.97538 19.1541 3.96119 19.4195 3.96119C20.6697 3.96119 21.8995 4.28398 22.9885 4.89847L19.4077 22.7773L24.3093 5.60641C25.7698 6.05791 27.0513 6.95899 27.9702 8.18174L20.868 23.327L28.8832 9.49317C29.9861 10.4719 30.765 11.7629 31.1164 13.1943L22.1746 24.2319L31.3724 14.9325C31.7885 15.8648 32.0035 16.8737 32.0035 17.895C32.0035 18.5067 31.927 19.1146 31.7737 19.7066L26.5794 23.4849L25.9422 28.581H19.6351L18.7022 29.2596C18.4674 29.43 18.1858 29.5213 17.8966 29.5213C17.6079 29.5213 17.3261 29.43 17.0924 29.2596L16.1587 28.581ZM15.8876 31.5733H7.21022L6.40637 25.1423L1.143 21.3146C0.913486 20.1899 0.797852 19.0434 0.797852 17.8951C0.797852 8.45725 8.45828 0.797607 17.8966 0.797607C27.3354 0.797607 34.996 8.45725 34.996 17.8951C34.996 19.0434 34.8805 20.1899 34.6507 21.3146L29.3881 25.1423L28.5838 31.5733H19.9067L19.4059 31.9374C18.967 32.2567 18.4391 32.4282 17.8966 32.4282C17.3551 32.4282 16.8264 32.2567 16.3883 31.9374L15.8876 31.5733Z" fill="#DD1D21"/>
</svg>
